<?xml version="1.0" encoding="UTF-8"?>
<svg xmlns="http://www.w3.org/2000/svg" xmlns:xlink="http://www.w3.org/1999/xlink" width="24pt" height="24pt" viewBox="0 0 24 24" version="1.1">
<g id="surface1">
<path style=" stroke:none;fill-rule:evenodd;fill:rgb(85.490196%,85.882353%,85.882353%);fill-opacity:1;" d="M 7.515625 2.027344 C 8.328125 1.101562 9.847656 1.101562 10.664062 2.027344 C 11.058594 2.476562 11.226562 3.035156 11.152344 3.628906 C 11.148438 3.667969 11.144531 3.703125 11.140625 3.742188 L 10.855469 6.234375 C 10.8125 6.5625 10.535156 6.808594 10.207031 6.808594 L 9.746094 6.808594 L 9.746094 9.1875 L 9.84375 9.1875 C 10.816406 9.1875 11.660156 9.832031 11.9375 10.742188 L 11.957031 10.808594 L 12.011719 10.820312 C 12.65625 11.019531 13.152344 11.582031 13.347656 12.277344 L 13.355469 12.316406 L 13.378906 12.320312 C 14.402344 12.4375 15.121094 13.3125 15.175781 14.394531 L 15.175781 14.523438 C 15.175781 14.882812 14.882812 15.179688 14.519531 15.179688 L 3.65625 15.179688 C 3.292969 15.179688 3 14.882812 3 14.523438 C 3 13.929688 3.191406 13.398438 3.550781 12.984375 C 3.882812 12.601562 4.289062 12.382812 4.769531 12.320312 L 4.820312 12.316406 L 4.832031 12.277344 C 5.027344 11.578125 5.523438 11.019531 6.167969 10.820312 L 6.222656 10.808594 L 6.238281 10.742188 C 6.503906 9.871094 7.289062 9.242188 8.207031 9.191406 L 8.335938 9.1875 L 8.433594 9.1875 L 8.433594 6.808594 L 7.972656 6.808594 C 7.644531 6.808594 7.371094 6.570312 7.324219 6.269531 L 7.316406 6.203125 C 7.292969 6.027344 7.277344 5.867188 7.253906 5.671875 L 7.113281 4.375 L 7.023438 3.628906 C 6.949219 3.035156 7.121094 2.476562 7.515625 2.027344 Z M 13.191406 13.351562 L 4.988281 13.351562 C 4.542969 13.351562 4.210938 13.71875 4.09375 14.132812 L 14.082031 14.132812 C 13.96875 13.71875 13.632812 13.351562 13.191406 13.351562 Z M 11.507812 11.792969 L 6.671875 11.792969 C 6.246094 11.792969 5.9375 12.175781 5.832031 12.574219 L 12.34375 12.574219 C 12.238281 12.175781 11.929688 11.792969 11.507812 11.792969 Z M 9.84375 10.234375 L 8.335938 10.234375 C 7.839844 10.234375 7.40625 10.554688 7.25 11.011719 L 10.925781 11.011719 C 10.773438 10.554688 10.339844 10.234375 9.84375 10.234375 Z M 8.628906 2.46875 C 8.382812 2.578125 8.167969 2.824219 8.089844 3.078125 C 8.050781 3.210938 8.039062 3.347656 8.058594 3.496094 C 8.148438 4.222656 8.230469 5.042969 8.316406 5.761719 L 9.863281 5.761719 C 9.945312 5.042969 10.027344 4.222656 10.117188 3.496094 C 10.15625 3.199219 10.074219 2.941406 9.878906 2.71875 C 9.578125 2.378906 9.039062 2.285156 8.628906 2.46875 Z M 8.628906 2.46875 "/>
</g>
</svg>
