<?xml version="1.0" encoding="UTF-8"?>
<svg width="24px" height="24px" viewBox="0 0 16 16" version="1.1" xmlns="http://www.w3.org/2000/svg" xmlns:xlink="http://www.w3.org/1999/xlink">
    <title>2F504206-B235-47BF-A31E-80C793E06897</title>
    <g id="Main-Feature" stroke="none" stroke-width="1" fill="none" fill-rule="evenodd">
        <g id="1.-Home-page" transform="translate(-531.000000, -981.000000)" fill="#DADBDB">
            <g id="Danh-sách-tin" transform="translate(0.000000, 584.000000)">
                <g id="List" transform="translate(135.000000, 164.000000)">
                    <g id="Left">
                        <g id="Card-/-Product---Home" transform="translate(0.000000, 160.000000)">
                            <g id="Infomation" transform="translate(206.000000, 0.000000)">
                                <g id="4" transform="translate(190.000000, 70.000000)">
                                    <g id="Icon-/-Place" transform="translate(0.000000, 3.000000)">
                                        <g id="Place">
                                            <path d="M11.0201662,8.0980059 L8.01816615,12.4686726 L4.99283282,8.11267257 C4.49636068,7.11722594 4.44381414,5.95829642 4.84816615,4.9220059 C6.01949948,1.93333924 9.95483282,1.92267257 11.1441662,4.91267257 C11.5525477,5.94465497 11.5075371,7.10089374 11.0201662,8.0980059 L11.0201662,8.0980059 Z M12.1201662,8.72867257 L8.73016615,13.8833392 L8.73016615,13.8846726 L8.69683282,13.9513392 L8.37883282,14.4266726 C8.31327099,14.5728476 8.16822955,14.667126 8.00802604,14.6677034 C7.84782254,14.6682755 7.7021084,14.5750401 7.63549948,14.4293392 L7.35016615,13.9560059 L7.31683282,13.8900059 L7.31616615,13.8893392 L3.89816615,8.7520059 C3.22114119,7.39419947 3.14946784,5.81351139 3.70083282,4.4000059 C5.30083282,0.317339238 10.6688328,0.310005905 12.2888328,4.38467257 C12.8457256,5.79206524 12.784259,7.3689011 12.1194995,8.72867257 L12.1201662,8.72867257 Z M8.63950068,6.2440059 C8.64016615,6.61467257 8.36216615,6.91533924 8.01816615,6.91667257 C7.67416615,6.91667257 7.39483282,6.61733924 7.39349829,6.24667257 C7.39283282,5.8760059 7.67083282,5.57533924 8.01483282,5.57466814 C8.35883282,5.57333924 8.63816615,5.87333924 8.63950068,6.2440059 L8.63950068,6.2440059 Z M9.88483919,6.24067257 C9.88749948,7.35267257 9.05349948,8.2560059 8.02149948,8.2586759 C6.98949948,8.26067257 6.15083282,7.3620059 6.14815977,6.2500059 C6.14549948,5.1380059 6.97949948,4.23467257 8.01149948,4.23200257 C9.04349948,4.2300059 9.88216615,5.12867257 9.88483919,6.24067257 L9.88483919,6.24067257 Z" id="Main"></path>
                                        </g>
                                    </g>
                                </g>
                            </g>
                        </g>
                    </g>
                </g>
            </g>
        </g>
    </g>
</svg>