<svg width="24" height="24" viewBox="0 0 24 24" fill="none" xmlns="http://www.w3.org/2000/svg">
<path fill-rule="evenodd" clip-rule="evenodd" d="M12 24C18.6274 24 24 18.6274 24 12C24 5.37258 18.6274 0 12 0C5.37258 0 0 5.37258 0 12C0 18.6274 5.37258 24 12 24Z" fill="white"/>
<path fill-rule="evenodd" clip-rule="evenodd" d="M16 5C17.1046 5 18 5.89543 18 7V18.727C18 19.1237 17.7656 19.4828 17.4025 19.6425C17.0394 19.8022 16.6163 19.7321 16.324 19.464L12.676 16.119C12.2936 15.7682 11.7064 15.7682 11.324 16.119L7.676 19.464C7.38371 19.7321 6.96056 19.8022 6.59746 19.6425C6.23437 19.4828 6 19.1237 6 18.727V7C6 5.89543 6.89543 5 8 5H16ZM16 7H8V16.453L9.972 14.6452C11.0714 13.6367 12.7351 13.5946 13.8812 14.5189L14.0277 14.6449L16 16.453V7Z" fill="#DADBDB"/>
<mask id="mask0" mask-type="alpha" maskUnits="userSpaceOnUse" x="6" y="5" width="12" height="15">
<path fill-rule="evenodd" clip-rule="evenodd" d="M16 5C17.1046 5 18 5.89543 18 7V18.727C18 19.1237 17.7656 19.4828 17.4025 19.6425C17.0394 19.8022 16.6163 19.7321 16.324 19.464L12.676 16.119C12.2936 15.7682 11.7064 15.7682 11.324 16.119L7.676 19.464C7.38371 19.7321 6.96056 19.8022 6.59746 19.6425C6.23437 19.4828 6 19.1237 6 18.727V7C6 5.89543 6.89543 5 8 5H16ZM16 7H8V16.453L9.972 14.6452C11.0714 13.6367 12.7351 13.5946 13.8812 14.5189L14.0277 14.6449L16 16.453V7Z" fill="white"/>
</mask>
<g mask="url(#mask0)">
</g>
</svg>
