<svg width="20" height="16" viewBox="0 0 20 16" fill="none" xmlns="http://www.w3.org/2000/svg">
<path fill-rule="evenodd" clip-rule="evenodd" d="M3 0C1.34315 0 0 1.34315 0 3V13C0 14.6569 1.34315 16 3 16H17C18.6569 16 20 14.6569 20 13V3C20 1.34315 18.6569 0 17 0H3ZM2.091 2.582C2.2543 2.22709 2.60933 1.99978 3 2H17C17.3907 1.99978 17.7457 2.22709 17.909 2.582L10.614 8.256C10.2529 8.53693 9.74713 8.53693 9.386 8.256L2.091 2.582ZM2 5.045V10.865L5.613 7.855L2 5.044V5.045ZM2.083 13.399C2.24182 13.764 2.60196 14 3 14H17C17.3978 14.0002 17.7579 13.7646 17.917 13.4L12.771 9.111L11.841 9.834C10.7578 10.6763 9.24121 10.6763 8.158 9.834L7.228 9.111L2.084 13.4L2.083 13.399ZM18 10.865V5.045L14.387 7.855L18 10.864V10.865Z" fill="#DADBDB"/>
</svg>
