<?xml version="1.0" encoding="UTF-8"?>
<svg width="32px" height="32px" viewBox="0 0 32 32" version="1.1" xmlns="http://www.w3.org/2000/svg" xmlns:xlink="http://www.w3.org/1999/xlink">
    <title>86D1C691-604D-4DD7-818B-4177C7A7AAF1</title>
    <g id="Main-Feature" stroke="none" stroke-width="1" fill="none" fill-rule="evenodd">
        <g id="1.-Home-page" transform="translate(-1145.000000, -3832.000000)" fill="#4267B2">
            <g id="Menu-/-Footer" transform="translate(0.000000, 3463.000000)">
                <g id="8.-Footer">
                    <g id="Group-15" transform="translate(0.000000, 329.000000)">
                        <g id="Copy-Rights">
                            <g id="Icon/_Social/Facebook" transform="translate(1145.000000, 40.000000)">
                                <g id="Group">
                                    <path d="M26.4761905,2.66666667 L5.52380952,2.66666667 C3.9458531,2.66666667 2.66666667,3.9458531 2.66666667,5.52380952 L2.66666667,26.4761905 C2.66666667,28.0541469 3.9458531,29.3333333 5.52380952,29.3333333 L13.6934524,29.3333333 L13.6934524,20.2672619 L9.94345238,20.2672619 L9.94345238,16 L13.6934524,16 L13.6934524,12.747619 C13.6934524,9.04821429 15.8958333,7.0047619 19.2690476,7.0047619 C20.8845238,7.0047619 22.5738095,7.29285714 22.5738095,7.29285714 L22.5738095,10.9238095 L20.7125,10.9238095 C18.8785714,10.9238095 18.3065476,12.0619048 18.3065476,13.2291667 L18.3065476,16 L22.4005952,16 L21.7458333,20.2672619 L18.3065476,20.2672619 L18.3065476,29.3333333 L26.4761905,29.3333333 C28.0541469,29.3333333 29.3333333,28.0541469 29.3333333,26.4761905 L29.3333333,5.52380952 C29.3333333,3.9458531 28.0541469,2.66666667 26.4761905,2.66666667 L26.4761905,2.66666667 Z" id="Main"></path>
                                </g>
                            </g>
                        </g>
                    </g>
                </g>
            </g>
        </g>
    </g>
</svg>