<?xml version="1.0" encoding="UTF-8"?>
<svg width="25px" height="24px" viewBox="0 0 25 24" version="1.1" xmlns="http://www.w3.org/2000/svg" xmlns:xlink="http://www.w3.org/1999/xlink">
    <title>1B3C7D63-03B8-4AFB-965D-DBBD1A35A9AF</title>
    <g id="Main-Feature" stroke="none" stroke-width="1" fill="none" fill-rule="evenodd" opacity="0.5">
        <g id="1.-Home-page" transform="translate(-1061.000000, -14.000000)" fill="#929495">
            <g id="Menu-/-Full">
                <g id="Menu" transform="translate(504.000000, 6.000000)">
                    <g id="Menu-/-Page-/-Default" transform="translate(540.000000, 0.000000)">
                        <g id="Icon" transform="translate(17.000000, 8.000000)">
                            <g id="Icon/Base" transform="translate(0.500000, 0.000000)">
                                <g id="More">
                                    <path d="M12,2 C17.5228475,2 22,6.4771525 22,12 C22,17.5228475 17.5228475,22 12,22 C6.4771525,22 2,17.5228475 2,12 C2,6.4771525 6.4771525,2 12,2 Z M12,3.66666667 C7.39762709,3.66666667 3.66666667,7.39762709 3.66666667,12 C3.66666667,16.6023729 7.39762709,20.3333333 12,20.3333333 C16.6023729,20.3333333 20.3333333,16.6023729 20.3333333,12 C20.3333333,7.39762709 16.6023729,3.66666667 12,3.66666667 Z M7,10.3333333 C7.92047458,10.3333333 8.66666667,11.0795254 8.66666667,12 C8.66666667,12.9204746 7.92047458,13.6666667 7,13.6666667 C6.07952542,13.6666667 5.33333333,12.9204746 5.33333333,12 C5.33333333,11.0795254 6.07952542,10.3333333 7,10.3333333 Z M12,10.3333333 C12.9204746,10.3333333 13.6666667,11.0795254 13.6666667,12 C13.6666667,12.9204746 12.9204746,13.6666667 12,13.6666667 C11.0795254,13.6666667 10.3333333,12.9204746 10.3333333,12 C10.3333333,11.0795254 11.0795254,10.3333333 12,10.3333333 Z M17,10.3333333 C17.9204746,10.3333333 18.6666667,11.0795254 18.6666667,12 C18.6666667,12.9204746 17.9204746,13.6666667 17,13.6666667 C16.0795254,13.6666667 15.3333333,12.9204746 15.3333333,12 C15.3333333,11.0795254 16.0795254,10.3333333 17,10.3333333 Z" id="Main"></path>
                                </g>
                            </g>
                        </g>
                    </g>
                </g>
            </g>
        </g>
    </g>
</svg>