<?xml version="1.0" encoding="UTF-8"?>
<svg width="24px" height="24px" viewBox="0 0 24 24" version="1.1" xmlns="http://www.w3.org/2000/svg" xmlns:xlink="http://www.w3.org/1999/xlink">
    <title>7501779C-C16F-4BD1-9EFC-879BBBDC8607</title>
    <g id="Main-Feature" stroke="none" stroke-width="1" fill="none" fill-rule="evenodd" opacity="0.5">
        <g id="1.-Home-page" transform="translate(-878.000000, -14.000000)">
            <g id="Menu-/-Full">
                <g id="Menu" transform="translate(504.000000, 6.000000)">
                    <g id="Menu-/-Page-/-Default" transform="translate(315.000000, 0.000000)">
                        <g id="Icon" transform="translate(59.000000, 8.000000)">
                            <g id="Icon/Base">
                                <g id="Post">
                                    <path d="M4.5,19.949 C4.224,19.949 4,19.719 4,19.436 L4,7.979 C4.313,8.092 4.65,8.154 5,8.154 L19.667,8.154 C19.851,8.154 20,8.307 20,8.496 L20,19.949 L4.5,19.949 L4.5,19.949 Z M2,5.077 C2,3.377 3.343,2 5,2 L13.396,2 C14.006,2 14.5,2.507 14.5,3.132 L14.5,6.102 L19.667,6.102 C20.955,6.103 22,7.175 22,8.497 L22,19.95 C22,21.082 21.105,22 20,22 L4.5,22 C3.12,22 2,20.852 2,19.436 L2,5.077 Z M12.5,4.05 L12.5,6.102 L5,6.102 C4.448,6.102 4,5.642 4,5.076 C4,4.509 4.448,4.05 5,4.05 L12.5,4.05 L12.5,4.05 Z M6,11.744 C6,11.177 6.448,10.718 7,10.718 L14,10.718 C14.552,10.718 15,11.178 15,11.744 C15,12.31 14.552,12.769 14,12.769 L7,12.769 C6.448,12.769 6,12.31 6,11.744 Z M7,14.82 C6.448,14.82 6,15.28 6,15.846 C6,16.413 6.448,16.872 7,16.872 L17,16.872 C17.552,16.872 18,16.412 18,15.846 C18,15.28 17.552,14.82 17,14.82 L7,14.82 Z" id="Main" fill="#DADBDB"></path>
                                    <path d="M4.5,19.949 C4.224,19.949 4,19.719 4,19.436 L4,7.979 C4.313,8.092 4.65,8.154 5,8.154 L19.667,8.154 C19.851,8.154 20,8.307 20,8.496 L20,19.949 L4.5,19.949 L4.5,19.949 Z M2,5.077 C2,3.377 3.343,2 5,2 L13.396,2 C14.006,2 14.5,2.507 14.5,3.132 L14.5,6.102 L19.667,6.102 C20.955,6.103 22,7.175 22,8.497 L22,19.95 C22,21.082 21.105,22 20,22 L4.5,22 C3.12,22 2,20.852 2,19.436 L2,5.077 Z M12.5,4.05 L12.5,6.102 L5,6.102 C4.448,6.102 4,5.642 4,5.076 C4,4.509 4.448,4.05 5,4.05 L12.5,4.05 L12.5,4.05 Z M6,11.744 C6,11.177 6.448,10.718 7,10.718 L14,10.718 C14.552,10.718 15,11.178 15,11.744 C15,12.31 14.552,12.769 14,12.769 L7,12.769 C6.448,12.769 6,12.31 6,11.744 Z M7,14.82 C6.448,14.82 6,15.28 6,15.846 C6,16.413 6.448,16.872 7,16.872 L17,16.872 C17.552,16.872 18,16.412 18,15.846 C18,15.28 17.552,14.82 17,14.82 L7,14.82 Z" id="Main" fill="#929495"></path>
                                </g>
                            </g>
                        </g>
                    </g>
                </g>
            </g>
        </g>
    </g>
</svg>