<?xml version="1.0" encoding="UTF-8"?>
<svg width="25px" height="24px" viewBox="0 0 25 24" version="1.1" xmlns="http://www.w3.org/2000/svg" xmlns:xlink="http://www.w3.org/1999/xlink">
    <title>77237A17-6A15-4042-8A74-85B1ECADBC0F</title>
    <g id="Main-Feature" stroke="none" stroke-width="1" fill="none" fill-rule="evenodd" opacity="0.5">
        <g id="1.-Home-page" transform="translate(-743.000000, -14.000000)" fill="#929495">
            <g id="Menu-/-Full">
                <g id="Menu" transform="translate(504.000000, 6.000000)">
                    <g id="Menu-/-Page-/-Default" transform="translate(204.000000, 0.000000)">
                        <g id="Icon" transform="translate(35.000000, 8.000000)">
                            <g id="Icon/Base" transform="translate(0.500000, 0.000000)">
                                <g id="Notification">
                                    <path d="M12,2 C10.8954305,2 10,2.8954305 10,4 L10,4.341 C7.67,5.165 6,7.388 6,10 L6,13.6 L4.383,15.824 C3.94079839,16.4322985 3.87721371,17.2372404 4.21842441,17.9074229 C4.55963511,18.5776055 5.24795657,18.9997286 6,19 L9,19 C9,20.6568542 10.3431458,22 12,22 C13.6568542,22 15,20.6568542 15,19 L18,19 C18.7520434,18.9997286 19.4403649,18.5776055 19.7815756,17.9074229 C20.1227863,17.2372404 20.0592016,16.4322985 19.617,15.824 L18,13.6 L18,10 C18.0003101,7.45670498 16.3976417,5.18932998 14,4.341 L14,4 C14,2.8954305 13.1045695,2 12,2 Z M13.001,17 L6,17 L7.455,15 L7.617,14.776 C7.86571043,14.4343116 7.99979023,14.0226201 8,13.6 L8,10 C8,7.790861 9.790861,6 12,6 C14.209139,6 16,7.790861 16,10 L16,13.6 C16.0002098,14.0226201 16.1342896,14.4343116 16.383,14.776 L16.546,15 L18,17 L13.001,17 L13.001,17 Z M12,20 C11.4477153,20 11,19.5522847 11,19 L13,19 C13,19.5522847 12.5522847,20 12,20 Z M17.072,3.629 C17.1705145,3.38273566 17.3628294,3.18569724 17.6066314,3.08123748 C17.8504333,2.97677773 18.1257479,2.97345486 18.372,3.072 L18,4 C18.371,3.072 18.372,3.072 18.373,3.072 L18.374,3.072 L18.377,3.074 L18.383,3.076 L18.398,3.082 C18.4474603,3.10292298 18.4958531,3.12628499 18.543,3.152 C18.628,3.195 18.739,3.258 18.867,3.342 C19.123,3.513 19.448,3.776 19.768,4.16 C20.422,4.944 21,6.172 21,8 C21,8.55228475 20.5522847,9 20,9 C19.4477153,9 19,8.55228475 19,8 C19,6.628 18.578,5.856 18.232,5.44 C18.0954797,5.27377991 17.9358595,5.12796656 17.758,5.007 C17.7111487,4.97565742 17.6623873,4.94726893 17.612,4.922 C17.1096451,4.71024589 16.869462,4.13514092 17.072,3.629 Z M5.629,3.072 C5.96089973,2.93963309 6.33820464,2.99438742 6.61878761,3.21563758 C6.89937059,3.43688773 7.04060439,3.79102053 6.98928762,4.14463759 C6.93797085,4.49825464 6.70189974,4.7976331 6.37,4.93 C6.346,4.942 6.3,4.967 6.241,5.007 C6.121,5.087 5.947,5.224 5.767,5.44 C5.422,5.856 5,6.628 5,8 C5,8.55228475 4.55228475,9 4,9 C3.44771525,9 3,8.55228475 3,8 C3,6.172 3.578,4.944 4.232,4.16 C4.552,3.776 4.877,3.513 5.132,3.343 C5.28145509,3.24389322 5.43862682,3.15694716 5.602,3.083 L5.617,3.076 L5.623,3.074 L5.626,3.073 L5.627,3.072 C5.628,3.072 5.629,3.072 6,4 L5.629,3.072 L5.629,3.072 Z" id="Mask"></path>
                                </g>
                            </g>
                        </g>
                    </g>
                </g>
            </g>
        </g>
    </g>
</svg>