<svg width="24" height="24" viewBox="0 0 24 24" fill="none" xmlns="http://www.w3.org/2000/svg">
<path fill-rule="evenodd" clip-rule="evenodd" d="M13.3822 2.58231C13.6141 2.08081 14.2079 1.86127 14.7102 2.09131L14.7112 2.09031C17.2872 3.27031 20.4302 5.55531 21.9142 8.92731C22.0208 9.16981 22.0265 9.44475 21.9301 9.69147C21.8336 9.93818 21.643 10.1364 21.4002 10.2423C20.8932 10.4643 20.3022 10.2353 20.0802 9.73031C18.8642 6.97031 16.2002 4.97031 13.8752 3.90631C13.6339 3.79653 13.4462 3.59515 13.3537 3.3467C13.2612 3.09825 13.2715 2.82318 13.3822 2.58231ZM12.6252 6.08031C12.8735 5.5864 13.4746 5.38648 13.9692 5.63331H13.9682C15.0312 6.16231 15.8822 6.71931 16.6082 7.44231C17.3342 8.16631 17.8932 9.01431 18.4242 10.0723C18.5431 10.3093 18.5626 10.5839 18.4785 10.8354C18.3945 11.0868 18.2137 11.2944 17.9762 11.4123C17.4822 11.6593 16.8792 11.4593 16.6322 10.9663C16.1622 10.0283 15.7182 9.37831 15.1922 8.85431C14.6662 8.33031 14.0142 7.88831 13.0732 7.41931C12.836 7.30144 12.6554 7.094 12.5713 6.84278C12.4873 6.59156 12.5067 6.31722 12.6252 6.08031ZM8.3452 7.42331L6.3412 4.26431V4.26531C5.6552 4.61631 4.9182 5.21731 4.4632 6.10331C3.9922 7.02031 3.7652 8.34931 4.3652 10.2373C5.1852 12.8213 7.3292 15.0753 9.4672 16.7653C10.8319 17.8426 12.2943 18.79 13.8352 19.5953C14.1562 19.7003 15.6032 20.1283 17.0282 19.9703C17.7412 19.8913 18.3812 19.6723 18.8762 19.2563C19.3472 18.8603 19.7742 18.2123 19.9602 17.1003C18.9573 16.5439 17.9667 15.9654 16.9892 15.3653L16.9832 15.3633H16.9772L16.9742 15.3643L15.5862 17.1133C15.0722 17.7623 14.1472 18.0753 13.2952 17.6773C11.8822 17.0193 8.7242 15.1823 6.4082 11.1473C5.96025 10.3737 6.11452 9.39218 6.7782 8.79331C7.0512 8.54831 7.3102 8.32631 7.5552 8.11831C7.8392 7.87631 8.1032 7.65031 8.3452 7.42331ZM7.9922 3.13131C7.5372 2.41431 6.5602 1.95131 5.6162 2.39531C4.5912 2.87631 3.4092 3.77231 2.6792 5.19231C1.9362 6.63831 1.7182 8.51831 2.4552 10.8383C3.4572 13.9963 5.9822 16.5583 8.2212 18.3283C10.4852 20.1173 12.5942 21.2073 12.9512 21.3873C13.0253 21.4248 13.1022 21.4565 13.1812 21.4823C13.5152 21.5933 15.3402 22.1643 17.2492 21.9543C18.2192 21.8463 19.2782 21.5293 20.1682 20.7813C21.0722 20.0213 21.7072 18.8943 21.9502 17.3473C22.0852 16.4863 21.6082 15.7233 20.9402 15.3573C19.9598 14.8141 18.9916 14.2493 18.0362 13.6633C17.1671 13.1311 16.0377 13.3296 15.4022 14.1263L14.0532 15.8263C12.8412 15.2453 10.1772 13.6553 8.1842 10.2193C8.3542 10.0683 8.5542 9.89631 8.7642 9.71631C9.1472 9.38831 9.5582 9.03531 9.8532 8.74931C10.5422 8.08031 10.5132 7.10331 10.0892 6.43531L7.9922 3.13131Z" fill="#DADBDB"/>
<mask id="mask0" mask-type="alpha" maskUnits="userSpaceOnUse" x="2" y="2" width="20" height="21">
<path fill-rule="evenodd" clip-rule="evenodd" d="M13.3822 2.58231C13.6141 2.08081 14.2079 1.86127 14.7102 2.09131L14.7112 2.09031C17.2872 3.27031 20.4302 5.55531 21.9142 8.92731C22.0208 9.16981 22.0265 9.44475 21.9301 9.69147C21.8336 9.93818 21.643 10.1364 21.4002 10.2423C20.8932 10.4643 20.3022 10.2353 20.0802 9.73031C18.8642 6.97031 16.2002 4.97031 13.8752 3.90631C13.6339 3.79653 13.4462 3.59515 13.3537 3.3467C13.2612 3.09825 13.2715 2.82318 13.3822 2.58231ZM12.6252 6.08031C12.8735 5.5864 13.4746 5.38648 13.9692 5.63331H13.9682C15.0312 6.16231 15.8822 6.71931 16.6082 7.44231C17.3342 8.16631 17.8932 9.01431 18.4242 10.0723C18.5431 10.3093 18.5626 10.5839 18.4785 10.8354C18.3945 11.0868 18.2137 11.2944 17.9762 11.4123C17.4822 11.6593 16.8792 11.4593 16.6322 10.9663C16.1622 10.0283 15.7182 9.37831 15.1922 8.85431C14.6662 8.33031 14.0142 7.88831 13.0732 7.41931C12.836 7.30144 12.6554 7.094 12.5713 6.84278C12.4873 6.59156 12.5067 6.31722 12.6252 6.08031ZM8.3452 7.42331L6.3412 4.26431V4.26531C5.6552 4.61631 4.9182 5.21731 4.4632 6.10331C3.9922 7.02031 3.7652 8.34931 4.3652 10.2373C5.1852 12.8213 7.3292 15.0753 9.4672 16.7653C10.8319 17.8426 12.2943 18.79 13.8352 19.5953C14.1562 19.7003 15.6032 20.1283 17.0282 19.9703C17.7412 19.8913 18.3812 19.6723 18.8762 19.2563C19.3472 18.8603 19.7742 18.2123 19.9602 17.1003C18.9573 16.5439 17.9667 15.9654 16.9892 15.3653L16.9832 15.3633H16.9772L16.9742 15.3643L15.5862 17.1133C15.0722 17.7623 14.1472 18.0753 13.2952 17.6773C11.8822 17.0193 8.7242 15.1823 6.4082 11.1473C5.96025 10.3737 6.11452 9.39218 6.7782 8.79331C7.0512 8.54831 7.3102 8.32631 7.5552 8.11831C7.8392 7.87631 8.1032 7.65031 8.3452 7.42331ZM7.9922 3.13131C7.5372 2.41431 6.5602 1.95131 5.6162 2.39531C4.5912 2.87631 3.4092 3.77231 2.6792 5.19231C1.9362 6.63831 1.7182 8.51831 2.4552 10.8383C3.4572 13.9963 5.9822 16.5583 8.2212 18.3283C10.4852 20.1173 12.5942 21.2073 12.9512 21.3873C13.0253 21.4248 13.1022 21.4565 13.1812 21.4823C13.5152 21.5933 15.3402 22.1643 17.2492 21.9543C18.2192 21.8463 19.2782 21.5293 20.1682 20.7813C21.0722 20.0213 21.7072 18.8943 21.9502 17.3473C22.0852 16.4863 21.6082 15.7233 20.9402 15.3573C19.9598 14.8141 18.9916 14.2493 18.0362 13.6633C17.1671 13.1311 16.0377 13.3296 15.4022 14.1263L14.0532 15.8263C12.8412 15.2453 10.1772 13.6553 8.1842 10.2193C8.3542 10.0683 8.5542 9.89631 8.7642 9.71631C9.1472 9.38831 9.5582 9.03531 9.8532 8.74931C10.5422 8.08031 10.5132 7.10331 10.0892 6.43531L7.9922 3.13131Z" fill="white"/>
</mask>
<g mask="url(#mask0)">
</g>
</svg>
