<?xml version="1.0" encoding="UTF-8"?>
<svg width="25px" height="24px" viewBox="0 0 25 24" version="1.1" xmlns="http://www.w3.org/2000/svg" xmlns:xlink="http://www.w3.org/1999/xlink">
    <title>8D55E17E-B86A-42A4-82DD-DE2EF1638C97</title>
    <g id="Main-Feature" stroke="none" stroke-width="1" fill="none" fill-rule="evenodd" opacity="0.5">
        <g id="1.-Home-page" transform="translate(-636.000000, -14.000000)" fill="#929495">
            <g id="Menu-/-Full">
                <g id="Menu" transform="translate(504.000000, 6.000000)">
                    <g id="Menu-/-Page-/-Default" transform="translate(101.000000, 0.000000)">
                        <g id="Icon" transform="translate(31.000000, 8.000000)">
                            <g id="Icon/Base" transform="translate(0.500000, 0.000000)">
                                <g id="Store">
                                    <path d="M4.40076723,9.2 C4.02305847,8.69638831 3.90450314,8.04433402 4.08076723,7.44 L5.08376723,4 L7.99976723,4 L7.99976723,8 C7.99976723,9.1045695 7.10433673,10 5.99976723,10 C5.37125262,10 4.77847599,9.70361169 4.40076723,9.2 Z M6.00076723,12 L6.00076723,16.5 L10.9997672,16.5 L10.9997672,16 C10.971619,14.9100956 11.536989,13.8907172 12.4764618,13.337477 C13.4159346,12.7842367 14.5815999,12.7842367 15.5210727,13.337477 C16.4605455,13.8907172 17.0259155,14.9100956 16.9977672,16 L16.9977672,20 L17.9977672,20 L17.9977672,12 C16.8495248,12.0013623 15.7563552,11.5079784 14.9977672,10.646 C14.2397191,11.507561 13.1473402,12.000917 11.9997672,12 C10.8515248,12.0013623 9.75835517,11.5079784 8.99976723,10.646 C8.24071906,11.507561 7.14834016,12.000917 6.00076723,12 Z M15.9977672,22 L17.9977672,22 C19.1019462,21.9994479 19.9967674,21.1041791 19.9967672,20 L19.9967672,11.467 C21.5937357,10.5445991 22.3535963,8.65031621 21.8367672,6.88 L20.7467672,3.146 C20.5490933,2.46746642 19.9275079,2.00066637 19.2207672,2 L4.77676723,2 C4.06976723,2 3.44676723,2.467 3.24976723,3.146 L2.16076723,6.88 C1.64393818,8.65031621 2.40379876,10.5445991 4.00076723,11.467 L4.00076723,20 C4.00076723,21.1045695 4.89619773,22 6.00076723,22 L15.9977672,22 Z M14.9977672,20 L14.9977672,16 C14.9977672,15.4477153 14.550052,15 13.9977672,15 C13.4454825,15 12.9977672,15.4477153 12.9977672,16 L12.9977672,20 L14.9977672,20 Z M10.9977672,18.5 L6.00076723,18.5 L6.00076723,20 L10.9997672,20 L10.9977672,18.5 Z M15.9977672,4 L18.9137672,4 L19.9167672,7.44 C20.1358863,8.19126552 19.8967106,9.0013132 19.3046687,9.51307428 C18.7126267,10.0248354 17.876496,10.1442826 17.1648426,9.81876372 C16.4531893,9.49324483 15.9967672,8.78256825 15.9967672,8 L15.9977672,4 Z M9.99876723,4 L13.9987672,4 L13.9987672,8 C13.9987672,9.1045695 13.1033367,10 11.9987672,10 C10.8941977,10 9.99876723,9.1045695 9.99876723,8 L9.99876723,4 Z" id="Main"></path>
                                </g>
                            </g>
                        </g>
                    </g>
                </g>
            </g>
        </g>
    </g>
</svg>