<?xml version="1.0" encoding="UTF-8"?>
<svg width="16px" height="16px" viewBox="0 0 16 16" version="1.1" xmlns="http://www.w3.org/2000/svg" xmlns:xlink="http://www.w3.org/1999/xlink">
    <title>2E06DE99-A19F-4483-89A6-383E23C94960</title>
    <g id="Main-Feature" stroke="none" stroke-width="1" fill="none" fill-rule="evenodd">
        <g id="13.-Saved" transform="translate(-143.000000, -432.000000)" fill="#DADBDB">
            <g id="Card-/-Product---Home" transform="translate(135.000000, 328.000000)">
                <g id="Image">
                    <g id="Store" transform="translate(0.000000, 96.000000)">
                        <g id="Icon-/-Mall" transform="translate(8.000000, 8.000000)">
                            <g id="User">
                                <path d="M8,10.3997832 C7.54383333,10.3997832 7.1775,10.4315851 6.866,10.4783879 C5.57916667,10.6721996 4.5,12.0186807 4.5,13.3999639 C4.5,13.7313547 4.23883277,14 3.91666667,14 C3.59450056,14 3.33333333,13.7313547 3.33333333,13.3999639 C3.33333333,11.8440702 4.28125,10.3157781 5.64333333,9.62993683 C4.19092371,8.57369857 3.57031306,6.67186006 4.1090336,4.92813169 C4.64775414,3.18440332 6.22185152,2 8.00058333,2 C9.77931514,2 11.3534125,3.18440332 11.8921331,4.92813169 C12.4308536,6.67186006 11.810243,8.57369857 10.3578333,9.62993683 C11.71875,10.3157781 12.6666667,11.8440702 12.6666667,13.3999639 C12.6666667,13.7313547 12.4054994,14 12.0833333,14 C11.7611672,14 11.5,13.7313547 11.5,13.3999639 C11.5,12.0186807 10.4208333,10.6721996 9.134,10.4783879 C8.75838455,10.4236251 8.37936223,10.3973527 8,10.3997832 Z M8,9.19971092 C6.38916948,9.19971092 5.08333333,7.85648428 5.08333333,6.19953024 C5.08333333,4.54257621 6.38916948,3.19934957 8,3.19934957 C9.61083052,3.19934957 10.9166667,4.54257621 10.9166667,6.19953024 C10.9166667,7.85648428 9.61083052,9.19971092 8,9.19971092 L8,9.19971092 Z" id="Main"></path>
                            </g>
                        </g>
                    </g>
                </g>
            </g>
        </g>
    </g>
</svg>