<?xml version="1.0" encoding="UTF-8"?>
<svg width="32px" height="32px" viewBox="0 0 32 32" version="1.1" xmlns="http://www.w3.org/2000/svg" xmlns:xlink="http://www.w3.org/1999/xlink">
    <title>399A618C-6903-451A-B1FE-A6DD39FD7C59</title>
    <g id="Main-Feature" stroke="none" stroke-width="1" fill="none" fill-rule="evenodd">
        <g id="1.-Home-page" transform="translate(-1273.000000, -3832.000000)" fill="#FF0000">
            <g id="Menu-/-Footer" transform="translate(0.000000, 3463.000000)">
                <g id="8.-Footer">
                    <g id="Group-15" transform="translate(0.000000, 329.000000)">
                        <g id="Copy-Rights">
                            <g id="Icon/_Social/Youtube" transform="translate(1273.000000, 40.000000)">
                                <g id="Group">
                                    <path d="M15.9667498,4 C20.0897756,4 23.680798,4.46829268 25.9418121,4.85853659 C27.3383209,5.09268293 28.4688279,6.34146341 28.7348296,7.9804878 C29.0008313,9.77560976 29.3333333,12.4292683 29.3333333,15.7073171 C29.2668329,18.9853659 29.0008313,21.6390244 28.7348296,23.4341463 C28.4688279,25.0731707 27.3383209,26.3219512 25.9418121,26.5560976 C23.7472984,26.9463415 20.0897756,27.4146341 15.9667498,27.4146341 C11.9102244,27.4146341 8.25270158,26.9463415 5.99168745,26.5560976 C4.59517872,26.3219512 3.46467165,25.0731707 3.19866999,23.4341463 C2.93266833,21.6390244 2.66666667,18.9853659 2.66666667,15.7073171 C2.66666667,12.4292683 2.93266833,9.77560976 3.19866999,7.9804878 C3.46467165,6.34146341 4.59517872,5.09268293 5.99168745,4.85853659 C8.18620116,4.46829268 11.843724,4 15.9667498,4 Z M13.3067332,10.2439024 L13.3067332,21.1707317 L21.286783,15.7073171 L13.3067332,10.2439024 Z" id="Main"></path>
                                </g>
                            </g>
                        </g>
                    </g>
                </g>
            </g>
        </g>
    </g>
</svg>