<?xml version="1.0" encoding="UTF-8"?>
<svg width="32px" height="32px" viewBox="0 0 32 32" version="1.1" xmlns="http://www.w3.org/2000/svg" xmlns:xlink="http://www.w3.org/1999/xlink">
    <title>1B75E1A6-E691-4F8F-B633-D44FD86CA13F</title>
    <g id="Main-Feature" stroke="none" stroke-width="1" fill="none" fill-rule="evenodd">
        <g id="1.-Home-page" transform="translate(-1209.000000, -3832.000000)" fill="#0267FB">
            <g id="Menu-/-Footer" transform="translate(0.000000, 3463.000000)">
                <g id="8.-Footer">
                    <g id="Group-15" transform="translate(0.000000, 329.000000)">
                        <g id="Copy-Rights">
                            <g id="Icon/_Social/Zalo" transform="translate(1209.000000, 40.000000)">
                                <g id="Group">
                                    <path d="M5.84126984,2.66666667 C4.09554533,2.66666667 2.66666667,4.09554533 2.66666667,5.84126984 L2.66666667,26.1587302 C2.66666667,27.9044546 4.09554533,29.3333333 5.84126984,29.3333333 L26.1587302,29.3333333 C27.9044546,29.3333333 29.3333333,27.9044546 29.3333333,26.1587302 L29.3333333,5.84126984 C29.3333333,4.09554533 27.9044546,2.66666667 26.1587302,2.66666667 L5.84126984,2.66666667 Z M5.84126984,3.93650794 L10.0190971,3.93650794 C7.75173968,6.29567359 6.47619048,9.3448146 6.47619048,12.5079365 C6.47619048,15.784127 7.81597206,18.9205359 10.2286705,21.295139 C10.304861,21.4284724 10.3682044,22.0822419 10.076141,22.8377975 C9.89201397,23.3139879 9.52361079,23.9359625 8.81250032,24.1708832 C8.53948444,24.2597721 8.36190476,24.5275295 8.38095238,24.8132438 C8.4,25.0989581 8.61001968,25.3401784 8.88938476,25.3973213 C10.711607,25.759226 11.8916171,25.2127479 12.8439981,24.7810019 C13.701141,24.3873511 14.2670635,24.1203867 15.1369048,24.4759422 C16.9146825,25.1680057 18.8063492,25.5238095 20.7619048,25.5238095 C23.3610698,25.5238095 25.8612438,24.889353 28.0634921,23.6909721 L28.0634921,26.1587302 C28.0634921,27.2180851 27.2180851,28.0634921 26.1587302,28.0634921 L5.84126984,28.0634921 C4.78191498,28.0634921 3.93650794,27.2180851 3.93650794,26.1587302 L3.93650794,5.84126984 C3.93650794,4.78191498 4.78191498,3.93650794 5.84126984,3.93650794 Z M21.0793651,9.65079365 C21.4285714,9.65079365 21.7142857,9.93650794 21.7142857,10.2857143 L21.7142857,16 C21.7142857,16.3492063 21.4285714,16.6349206 21.0793651,16.6349206 C20.7301587,16.6349206 20.4444444,16.3492063 20.4444444,16 L20.4444444,10.2857143 C20.4444444,9.93650794 20.7301587,9.65079365 21.0793651,9.65079365 Z M11.5555556,10.2857143 L14.7301587,10.2857143 C14.9587302,10.2857143 15.1751486,10.4124006 15.2894343,10.6155752 C15.3973708,10.8124006 15.3902279,11.0598711 15.269593,11.2566965 L12.6989086,15.3650794 L14.7301587,15.3650794 C15.0793651,15.3650794 15.3650794,15.6507937 15.3650794,16 C15.3650794,16.3492063 15.0793651,16.6349206 14.7301587,16.6349206 L11.5555556,16.6349206 C11.3269841,16.6349206 11.1105657,16.5082343 10.99628,16.3050597 C10.8883435,16.1082343 10.8954863,15.8607638 11.0161213,15.6639384 L13.5868057,11.5555556 L11.5555556,11.5555556 C11.2063492,11.5555556 10.9206349,11.2698413 10.9206349,10.9206349 C10.9206349,10.5714286 11.2063492,10.2857143 11.5555556,10.2857143 Z M17.5873016,12.1904762 C17.9746032,12.1904762 18.3361606,12.2979168 18.6599702,12.4756946 C18.7742559,12.3106152 18.952381,12.1904762 19.1746032,12.1904762 C19.5238095,12.1904762 19.8095238,12.4761905 19.8095238,12.8253968 L19.8095238,16 C19.8095238,16.3492063 19.5238095,16.6349206 19.1746032,16.6349206 C18.952381,16.6349206 18.7742559,16.5147816 18.6599702,16.3497022 C18.3361606,16.52748 17.9746032,16.6349206 17.5873016,16.6349206 C16.3619048,16.6349206 15.3650794,15.6380952 15.3650794,14.4126984 C15.3650794,13.1873016 16.3619048,12.1904762 17.5873016,12.1904762 Z M24.5714286,12.1904762 C25.7968254,12.1904762 26.7936508,13.1873016 26.7936508,14.4126984 C26.7936508,15.6380952 25.7968254,16.6349206 24.5714286,16.6349206 C23.3460317,16.6349206 22.3492063,15.6380952 22.3492063,14.4126984 C22.3492063,13.1873016 23.3460317,12.1904762 24.5714286,12.1904762 Z M17.5873016,13.4603175 C17.5214286,13.4603175 17.4571556,13.4674978 17.3950895,13.4801587 C17.2709575,13.5054813 17.1553822,13.5543898 17.0540673,13.6227676 C16.952753,13.691146 16.8657492,13.7781498 16.7973708,13.8794641 C16.728993,13.980779 16.6800844,14.0963543 16.6547619,14.2204863 C16.642101,14.2825524 16.6349206,14.3468254 16.6349206,14.4126984 C16.6349206,14.4785714 16.642101,14.5428444 16.6547619,14.6049105 C16.6674229,14.6669765 16.6852679,14.7264883 16.7093257,14.7834819 C16.7333829,14.8404762 16.7631822,14.8952756 16.7973708,14.9459327 C16.83156,14.9965898 16.8708832,15.0430057 16.9139384,15.0860616 C16.9569943,15.1291168 17.0034102,15.16844 17.0540673,15.2026292 C17.1553822,15.271007 17.2709575,15.3199156 17.3950895,15.3452381 C17.4571556,15.357899 17.5214286,15.3650794 17.5873016,15.3650794 C17.6531746,15.3650794 17.7174476,15.357899 17.7795137,15.3452381 C18.2139759,15.2566095 18.5396825,14.8738095 18.5396825,14.4126984 C18.5396825,13.8857143 18.1142857,13.4603175 17.5873016,13.4603175 Z M24.5714286,13.4603175 C24.5055556,13.4603175 24.4412825,13.4674978 24.3792165,13.4801587 C24.3171505,13.4928197 24.2576387,13.5106648 24.2006451,13.5347225 C24.1436508,13.5587797 24.0888514,13.588579 24.0381943,13.6227676 C23.9875371,13.6569568 23.9411213,13.69628 23.8980654,13.7393352 C23.8119543,13.8254463 23.7415676,13.9279263 23.6934527,14.0419149 C23.6693949,14.0989086 23.6515498,14.1584203 23.6388889,14.2204863 C23.6262279,14.2825524 23.6190476,14.3468254 23.6190476,14.4126984 C23.6190476,14.4785714 23.6262279,14.5428444 23.6388889,14.6049105 C23.6515498,14.6669765 23.6693949,14.7264883 23.6934527,14.7834819 C23.7175098,14.8404762 23.7473092,14.8952756 23.7814978,14.9459327 C23.815687,14.9965898 23.8550102,15.0430057 23.8980654,15.0860616 C23.9411213,15.1291168 23.9875371,15.16844 24.0381943,15.2026292 C24.0888514,15.2368178 24.1436508,15.2666171 24.2006451,15.2906743 C24.2576387,15.3147321 24.3171505,15.3325771 24.3792165,15.3452381 C24.4412825,15.357899 24.5055556,15.3650794 24.5714286,15.3650794 C24.6373016,15.3650794 24.7015746,15.357899 24.7636406,15.3452381 C25.1981029,15.2566095 25.5238095,14.8738095 25.5238095,14.4126984 C25.5238095,13.8857143 25.0984127,13.4603175 24.5714286,13.4603175 Z" id="Main"></path>
                                </g>
                            </g>
                        </g>
                    </g>
                </g>
            </g>
        </g>
    </g>
</svg>